<svg id="eFMiN5kgy361" xmlns="http://www.w3.org/2000/svg" xmlns:xlink="http://www.w3.org/1999/xlink" viewBox="0 0 32 26" shape-rendering="geometricPrecision" text-rendering="geometricPrecision"><g transform="matrix(.41061 0 0 0.473976 0.610277 13.025734)"><g transform="translate(-57.572594-62.351604)"><g><g transform="translate(-2.508368 0.377376)"><g transform="matrix(1 0 0 0.992766 42.444806 64.32978)"><text dx="0" dy="0" font-family="&quot;Arial&quot;" font-size="20" font-weight="400" transform="matrix(.916457 0 0 0.75792 16.149886 21.984781)" fill="#282642"><tspan font-family="&quot;Arial&quot;" font-size="20" font-weight="400" font-style="normal" transform="translate(0 20)" fill="#282642"><![CDATA[
Bhushan
]]></tspan></text><path d="M30.42,25.2c.264,0,.48-.09.648-.27s.252-.39.252-.63v0-4.752c0-.264-.084-.486-.252-.666s-.384-.27-.648-.27v0h-4.752c-.264,0-.486.09-.666.27s-.27.402-.27.666v0v4.752c0,.264.09.48.27.648s.402.252.666.252v0h4.752Z" transform="matrix(1 0 0 0.692926 62.762717 4.621467)" fill="#ff4c60"/></g></g></g></g></g></svg>
